# xmcd
#
# Track frame offsets: 
#        150
#        16833
#        32379
#        42602
#        60331
#        80323
#        94175
#        107812
#        121486
#        135240
#        146426
#        168767
#
# Disc length: 2495 seconds
#
# Revision: 0
# Processed by: cddbd v1.5.2PL0 Copyright (c) Steve Scherf et al.
# Submitted via: ExactAudioCopy v1.0b4
#
DISCID=8c09bd0c
DTITLE=Jay Willie Blues Band - Jay Walkin'
DYEAR=2017
DGENRE=Blues
TTITLE0=Wish I Hadn't Called Home
TTITLE1=Jay Walkin'
TTITLE2=Hitting On Nothing
TTITLE3=The Other Side
TTITLE4=44 Blues
TTITLE5=I Feel So Good
TTITLE6=Move Over
TTITLE7=Sinner's Prayer
TTITLE8=Step Aside
TTITLE9=Go To Guy
TTITLE10=How Blue Can You Get
TTITLE11=Soul Of A Man
EXTD=
EXTT0=
EXTT1=
EXTT2=
EXTT3=
EXTT4=
EXTT5=
EXTT6=
EXTT7=
EXTT8=
EXTT9=
EXTT10=
EXTT11=
PLAYORDER=
